<mxfile host="app.diagrams.net" modified="2022-04-03T03:45:01.260Z" agent="5.0 (Windows NT 6.1; Win64; x64) AppleWebKit/537.36 (KHTML, like Gecko) Chrome/98.0.4758.102 Safari/537.36" etag="EE02J74ugUHdfsGyiJ6P" version="16.4.5" type="github">
  <diagram id="Pfbn8oCnvFzZYmGTeNMr" name="Page-1">
    <mxGraphModel dx="2858" dy="2312" grid="1" gridSize="10" guides="1" tooltips="1" connect="1" arrows="1" fold="1" page="1" pageScale="1" pageWidth="827" pageHeight="1169" math="0" shadow="0">
      <root>
        <mxCell id="0" />
        <mxCell id="1" parent="0" />
        <mxCell id="plnkz_P6K2nlOEyKLIr7-22" style="edgeStyle=orthogonalEdgeStyle;rounded=0;orthogonalLoop=1;jettySize=auto;html=1;exitX=0.5;exitY=1;exitDx=0;exitDy=0;" edge="1" parent="1" source="plnkz_P6K2nlOEyKLIr7-1" target="plnkz_P6K2nlOEyKLIr7-2">
          <mxGeometry relative="1" as="geometry" />
        </mxCell>
        <mxCell id="plnkz_P6K2nlOEyKLIr7-1" value="" style="rounded=1;whiteSpace=wrap;html=1;" vertex="1" parent="1">
          <mxGeometry x="245" y="-90" width="950" height="100" as="geometry" />
        </mxCell>
        <mxCell id="plnkz_P6K2nlOEyKLIr7-83" style="edgeStyle=orthogonalEdgeStyle;rounded=0;orthogonalLoop=1;jettySize=auto;html=1;exitX=0.5;exitY=1;exitDx=0;exitDy=0;entryX=0.491;entryY=0;entryDx=0;entryDy=0;entryPerimeter=0;" edge="1" parent="1" source="plnkz_P6K2nlOEyKLIr7-2" target="plnkz_P6K2nlOEyKLIr7-3">
          <mxGeometry relative="1" as="geometry" />
        </mxCell>
        <mxCell id="plnkz_P6K2nlOEyKLIr7-2" value="" style="rounded=1;whiteSpace=wrap;html=1;" vertex="1" parent="1">
          <mxGeometry x="250.63" y="80" width="936.25" height="98.75" as="geometry" />
        </mxCell>
        <mxCell id="plnkz_P6K2nlOEyKLIr7-25" style="edgeStyle=orthogonalEdgeStyle;rounded=0;orthogonalLoop=1;jettySize=auto;html=1;exitX=0.5;exitY=1;exitDx=0;exitDy=0;entryX=0.5;entryY=0;entryDx=0;entryDy=0;" edge="1" parent="1" source="plnkz_P6K2nlOEyKLIr7-3" target="plnkz_P6K2nlOEyKLIr7-17">
          <mxGeometry relative="1" as="geometry" />
        </mxCell>
        <mxCell id="plnkz_P6K2nlOEyKLIr7-3" value="" style="rounded=1;whiteSpace=wrap;html=1;" vertex="1" parent="1">
          <mxGeometry x="255" y="260" width="942.5" height="100" as="geometry" />
        </mxCell>
        <mxCell id="plnkz_P6K2nlOEyKLIr7-4" value="指标" style="ellipse;whiteSpace=wrap;html=1;" vertex="1" parent="1">
          <mxGeometry x="373.75" y="260" width="52.5" height="30" as="geometry" />
        </mxCell>
        <mxCell id="plnkz_P6K2nlOEyKLIr7-5" value="关联" style="ellipse;whiteSpace=wrap;html=1;" vertex="1" parent="1">
          <mxGeometry x="437.5" y="280" width="58.75" height="30" as="geometry" />
        </mxCell>
        <mxCell id="plnkz_P6K2nlOEyKLIr7-6" value="制约" style="ellipse;whiteSpace=wrap;html=1;" vertex="1" parent="1">
          <mxGeometry x="437.5" y="320" width="60" height="27.5" as="geometry" />
        </mxCell>
        <mxCell id="plnkz_P6K2nlOEyKLIr7-7" value="去伪" style="ellipse;whiteSpace=wrap;html=1;" vertex="1" parent="1">
          <mxGeometry x="505" y="320" width="56.12" height="27.5" as="geometry" />
        </mxCell>
        <mxCell id="plnkz_P6K2nlOEyKLIr7-8" value="持续跟踪" style="ellipse;whiteSpace=wrap;html=1;" vertex="1" parent="1">
          <mxGeometry x="410" y="103.13" width="75" height="25" as="geometry" />
        </mxCell>
        <mxCell id="plnkz_P6K2nlOEyKLIr7-29" style="edgeStyle=orthogonalEdgeStyle;rounded=0;orthogonalLoop=1;jettySize=auto;html=1;exitX=0.5;exitY=0;exitDx=0;exitDy=0;entryX=0;entryY=0.5;entryDx=0;entryDy=0;" edge="1" parent="1" source="plnkz_P6K2nlOEyKLIr7-11" target="plnkz_P6K2nlOEyKLIr7-17">
          <mxGeometry relative="1" as="geometry" />
        </mxCell>
        <mxCell id="plnkz_P6K2nlOEyKLIr7-11" value="复盘" style="ellipse;whiteSpace=wrap;html=1;" vertex="1" parent="1">
          <mxGeometry x="-40" y="572.5" width="80" height="40" as="geometry" />
        </mxCell>
        <mxCell id="plnkz_P6K2nlOEyKLIr7-15" style="edgeStyle=orthogonalEdgeStyle;rounded=0;orthogonalLoop=1;jettySize=auto;html=1;exitX=0.5;exitY=1;exitDx=0;exitDy=0;entryX=0.5;entryY=1;entryDx=0;entryDy=0;" edge="1" parent="1" source="plnkz_P6K2nlOEyKLIr7-12" target="plnkz_P6K2nlOEyKLIr7-11">
          <mxGeometry relative="1" as="geometry" />
        </mxCell>
        <mxCell id="plnkz_P6K2nlOEyKLIr7-12" value="" style="rounded=1;whiteSpace=wrap;html=1;" vertex="1" parent="1">
          <mxGeometry x="245" y="630" width="980" height="127.5" as="geometry" />
        </mxCell>
        <mxCell id="plnkz_P6K2nlOEyKLIr7-13" value="盯盘" style="ellipse;whiteSpace=wrap;html=1;" vertex="1" parent="1">
          <mxGeometry x="672.75" y="687.5" width="40" height="20" as="geometry" />
        </mxCell>
        <mxCell id="plnkz_P6K2nlOEyKLIr7-14" value="操作" style="ellipse;whiteSpace=wrap;html=1;" vertex="1" parent="1">
          <mxGeometry x="732.75" y="687.5" width="40" height="20" as="geometry" />
        </mxCell>
        <mxCell id="plnkz_P6K2nlOEyKLIr7-90" style="edgeStyle=orthogonalEdgeStyle;rounded=0;orthogonalLoop=1;jettySize=auto;html=1;exitX=0.5;exitY=1;exitDx=0;exitDy=0;entryX=0.49;entryY=0.012;entryDx=0;entryDy=0;entryPerimeter=0;" edge="1" parent="1" source="plnkz_P6K2nlOEyKLIr7-17" target="plnkz_P6K2nlOEyKLIr7-12">
          <mxGeometry relative="1" as="geometry" />
        </mxCell>
        <mxCell id="plnkz_P6K2nlOEyKLIr7-17" value="" style="rounded=1;whiteSpace=wrap;html=1;" vertex="1" parent="1">
          <mxGeometry x="235.94" y="427.5" width="980.62" height="145" as="geometry" />
        </mxCell>
        <mxCell id="plnkz_P6K2nlOEyKLIr7-18" value="板块温度" style="ellipse;whiteSpace=wrap;html=1;" vertex="1" parent="1">
          <mxGeometry x="361.25" y="530" width="60" height="20" as="geometry" />
        </mxCell>
        <mxCell id="plnkz_P6K2nlOEyKLIr7-19" value="操作风格" style="ellipse;whiteSpace=wrap;html=1;" vertex="1" parent="1">
          <mxGeometry x="522.5" y="450" width="57.5" height="30" as="geometry" />
        </mxCell>
        <mxCell id="plnkz_P6K2nlOEyKLIr7-20" value="仓位控制" style="ellipse;whiteSpace=wrap;html=1;" vertex="1" parent="1">
          <mxGeometry x="707.5" y="480" width="83.75" height="25" as="geometry" />
        </mxCell>
        <mxCell id="plnkz_P6K2nlOEyKLIr7-21" value="临时决断及依据" style="ellipse;whiteSpace=wrap;html=1;" vertex="1" parent="1">
          <mxGeometry x="950" y="452.5" width="95.5" height="25" as="geometry" />
        </mxCell>
        <mxCell id="plnkz_P6K2nlOEyKLIr7-28" value="基本面" style="ellipse;whiteSpace=wrap;html=1;" vertex="1" parent="1">
          <mxGeometry x="310" y="450" width="60" height="20" as="geometry" />
        </mxCell>
        <mxCell id="plnkz_P6K2nlOEyKLIr7-31" value="技术面" style="ellipse;whiteSpace=wrap;html=1;" vertex="1" parent="1">
          <mxGeometry x="365" y="450" width="60" height="20" as="geometry" />
        </mxCell>
        <mxCell id="plnkz_P6K2nlOEyKLIr7-33" value="情绪面" style="ellipse;whiteSpace=wrap;html=1;" vertex="1" parent="1">
          <mxGeometry x="365" y="490" width="60" height="20" as="geometry" />
        </mxCell>
        <mxCell id="plnkz_P6K2nlOEyKLIr7-34" value="策略" style="ellipse;whiteSpace=wrap;html=1;" vertex="1" parent="1">
          <mxGeometry x="760" y="455" width="90" height="20" as="geometry" />
        </mxCell>
        <mxCell id="plnkz_P6K2nlOEyKLIr7-35" value="共振" style="ellipse;whiteSpace=wrap;html=1;" vertex="1" parent="1">
          <mxGeometry x="507.5" y="280" width="52.25" height="30" as="geometry" />
        </mxCell>
        <mxCell id="plnkz_P6K2nlOEyKLIr7-36" value="轮动" style="ellipse;whiteSpace=wrap;html=1;" vertex="1" parent="1">
          <mxGeometry x="417.5" y="450" width="60" height="20" as="geometry" />
        </mxCell>
        <mxCell id="plnkz_P6K2nlOEyKLIr7-37" value="知行合一" style="ellipse;whiteSpace=wrap;html=1;" vertex="1" parent="1">
          <mxGeometry x="413.75" y="143.13" width="67.5" height="25" as="geometry" />
        </mxCell>
        <mxCell id="plnkz_P6K2nlOEyKLIr7-38" value="概率" style="ellipse;whiteSpace=wrap;html=1;" vertex="1" parent="1">
          <mxGeometry x="300" y="-70" width="47.5" height="30" as="geometry" />
        </mxCell>
        <mxCell id="plnkz_P6K2nlOEyKLIr7-39" value="不确定性" style="ellipse;whiteSpace=wrap;html=1;" vertex="1" parent="1">
          <mxGeometry x="293.75" y="-35" width="57.5" height="30" as="geometry" />
        </mxCell>
        <mxCell id="plnkz_P6K2nlOEyKLIr7-40" value="盈亏比" style="ellipse;whiteSpace=wrap;html=1;" vertex="1" parent="1">
          <mxGeometry x="360" y="-70" width="57.5" height="30" as="geometry" />
        </mxCell>
        <mxCell id="plnkz_P6K2nlOEyKLIr7-41" value="风险" style="ellipse;whiteSpace=wrap;html=1;" vertex="1" parent="1">
          <mxGeometry x="365" y="-35" width="47.5" height="30" as="geometry" />
        </mxCell>
        <mxCell id="plnkz_P6K2nlOEyKLIr7-42" value="盈亏同源" style="ellipse;whiteSpace=wrap;html=1;" vertex="1" parent="1">
          <mxGeometry x="430" y="-70" width="77.5" height="30" as="geometry" />
        </mxCell>
        <mxCell id="plnkz_P6K2nlOEyKLIr7-43" value="控制" style="ellipse;whiteSpace=wrap;html=1;" vertex="1" parent="1">
          <mxGeometry x="432.25" y="-32.5" width="62.75" height="25" as="geometry" />
        </mxCell>
        <mxCell id="plnkz_P6K2nlOEyKLIr7-44" value="人性的贪婪与恐惧" style="ellipse;whiteSpace=wrap;html=1;" vertex="1" parent="1">
          <mxGeometry x="521.25" y="-70" width="97.5" height="30" as="geometry" />
        </mxCell>
        <mxCell id="plnkz_P6K2nlOEyKLIr7-45" value="狙击" style="ellipse;whiteSpace=wrap;html=1;" vertex="1" parent="1">
          <mxGeometry x="535" y="-35" width="65" height="30" as="geometry" />
        </mxCell>
        <mxCell id="plnkz_P6K2nlOEyKLIr7-46" value="多要素" style="ellipse;whiteSpace=wrap;html=1;" vertex="1" parent="1">
          <mxGeometry x="630" y="-70" width="77.5" height="25" as="geometry" />
        </mxCell>
        <mxCell id="plnkz_P6K2nlOEyKLIr7-47" value="反身性" style="ellipse;whiteSpace=wrap;html=1;" vertex="1" parent="1">
          <mxGeometry x="635" y="-37.5" width="67.5" height="30" as="geometry" />
        </mxCell>
        <mxCell id="plnkz_P6K2nlOEyKLIr7-48" value="动态变化" style="ellipse;whiteSpace=wrap;html=1;" vertex="1" parent="1">
          <mxGeometry x="720" y="-70" width="77.5" height="25" as="geometry" />
        </mxCell>
        <mxCell id="plnkz_P6K2nlOEyKLIr7-49" value="入场时机" style="ellipse;whiteSpace=wrap;html=1;" vertex="1" parent="1">
          <mxGeometry x="840" y="482.5" width="50" height="20" as="geometry" />
        </mxCell>
        <mxCell id="plnkz_P6K2nlOEyKLIr7-50" value="止盈止损" style="ellipse;whiteSpace=wrap;html=1;" vertex="1" parent="1">
          <mxGeometry x="500.75" y="103.13" width="74" height="25" as="geometry" />
        </mxCell>
        <mxCell id="plnkz_P6K2nlOEyKLIr7-51" value="量价时空" style="ellipse;whiteSpace=wrap;html=1;" vertex="1" parent="1">
          <mxGeometry x="577.5" y="280" width="72.5" height="30" as="geometry" />
        </mxCell>
        <mxCell id="plnkz_P6K2nlOEyKLIr7-52" value="箱体" style="ellipse;whiteSpace=wrap;html=1;" vertex="1" parent="1">
          <mxGeometry x="577.5" y="320" width="65" height="27.5" as="geometry" />
        </mxCell>
        <mxCell id="plnkz_P6K2nlOEyKLIr7-53" value="网格" style="ellipse;whiteSpace=wrap;html=1;" vertex="1" parent="1">
          <mxGeometry x="667.5" y="280" width="70" height="30" as="geometry" />
        </mxCell>
        <mxCell id="plnkz_P6K2nlOEyKLIr7-54" value="强者恒强" style="ellipse;whiteSpace=wrap;html=1;" vertex="1" parent="1">
          <mxGeometry x="503.75" y="138.13" width="67" height="30" as="geometry" />
        </mxCell>
        <mxCell id="plnkz_P6K2nlOEyKLIr7-55" value="弱及是败" style="ellipse;whiteSpace=wrap;html=1;" vertex="1" parent="1">
          <mxGeometry x="573.75" y="138.13" width="85" height="30" as="geometry" />
        </mxCell>
        <mxCell id="plnkz_P6K2nlOEyKLIr7-56" value="尊重市场" style="ellipse;whiteSpace=wrap;html=1;" vertex="1" parent="1">
          <mxGeometry x="810" y="-40" width="70" height="30" as="geometry" />
        </mxCell>
        <mxCell id="plnkz_P6K2nlOEyKLIr7-57" value="回溯" style="ellipse;whiteSpace=wrap;html=1;" vertex="1" parent="1">
          <mxGeometry x="667.5" y="320" width="70" height="27.5" as="geometry" />
        </mxCell>
        <mxCell id="plnkz_P6K2nlOEyKLIr7-58" value="快速" style="ellipse;whiteSpace=wrap;html=1;" vertex="1" parent="1">
          <mxGeometry x="810" y="-70" width="67.5" height="25" as="geometry" />
        </mxCell>
        <mxCell id="plnkz_P6K2nlOEyKLIr7-62" value="科学指标分析而不是臆想" style="ellipse;whiteSpace=wrap;html=1;" vertex="1" parent="1">
          <mxGeometry x="613.75" y="98.13" width="107.5" height="35" as="geometry" />
        </mxCell>
        <mxCell id="plnkz_P6K2nlOEyKLIr7-64" style="edgeStyle=orthogonalEdgeStyle;rounded=0;orthogonalLoop=1;jettySize=auto;html=1;exitX=0;exitY=0.5;exitDx=0;exitDy=0;entryX=1;entryY=0.5;entryDx=0;entryDy=0;" edge="1" parent="1" source="plnkz_P6K2nlOEyKLIr7-63" target="plnkz_P6K2nlOEyKLIr7-62">
          <mxGeometry relative="1" as="geometry" />
        </mxCell>
        <mxCell id="plnkz_P6K2nlOEyKLIr7-63" value="市场、人性反应与诱发" style="ellipse;whiteSpace=wrap;html=1;" vertex="1" parent="1">
          <mxGeometry x="807.5" y="90.63" width="90" height="50" as="geometry" />
        </mxCell>
        <mxCell id="plnkz_P6K2nlOEyKLIr7-65" value="情绪" style="ellipse;whiteSpace=wrap;html=1;" vertex="1" parent="1">
          <mxGeometry x="720" y="-40" width="77.5" height="30" as="geometry" />
        </mxCell>
        <mxCell id="plnkz_P6K2nlOEyKLIr7-66" value="忌讳：亏就装死，没有市场跟踪和思考、感知、加仓、新机会" style="ellipse;whiteSpace=wrap;html=1;" vertex="1" parent="1">
          <mxGeometry x="-260" y="537.5" width="240" height="110" as="geometry" />
        </mxCell>
        <mxCell id="plnkz_P6K2nlOEyKLIr7-68" value="左侧" style="ellipse;whiteSpace=wrap;html=1;" vertex="1" parent="1">
          <mxGeometry x="493.75" y="485" width="65" height="20" as="geometry" />
        </mxCell>
        <mxCell id="plnkz_P6K2nlOEyKLIr7-69" value="趋势" style="ellipse;whiteSpace=wrap;html=1;" vertex="1" parent="1">
          <mxGeometry x="562.5" y="485" width="60" height="20" as="geometry" />
        </mxCell>
        <mxCell id="plnkz_P6K2nlOEyKLIr7-70" value="最小阻力方向" style="ellipse;whiteSpace=wrap;html=1;" vertex="1" parent="1">
          <mxGeometry x="771.25" y="270" width="76.25" height="35" as="geometry" />
        </mxCell>
        <mxCell id="plnkz_P6K2nlOEyKLIr7-71" value="分析具有倾向性" style="ellipse;whiteSpace=wrap;html=1;" vertex="1" parent="1">
          <mxGeometry x="190" y="400" width="73" height="50" as="geometry" />
        </mxCell>
        <mxCell id="plnkz_P6K2nlOEyKLIr7-72" value="交易具有应对性" style="ellipse;whiteSpace=wrap;html=1;" vertex="1" parent="1">
          <mxGeometry x="182" y="585" width="73" height="50" as="geometry" />
        </mxCell>
        <mxCell id="plnkz_P6K2nlOEyKLIr7-73" value="组合稳定性" style="ellipse;whiteSpace=wrap;html=1;" vertex="1" parent="1">
          <mxGeometry x="766.88" y="310" width="80.62" height="40.63" as="geometry" />
        </mxCell>
        <mxCell id="plnkz_P6K2nlOEyKLIr7-74" value="心理：买合理性而不是非得追底、追高" style="ellipse;whiteSpace=wrap;html=1;" vertex="1" parent="1">
          <mxGeometry x="890" y="-80" width="172.5" height="40" as="geometry" />
        </mxCell>
        <mxCell id="plnkz_P6K2nlOEyKLIr7-76" value="每日股池" style="ellipse;whiteSpace=wrap;html=1;" vertex="1" parent="1">
          <mxGeometry x="672.75" y="722.5" width="40" height="20" as="geometry" />
        </mxCell>
        <mxCell id="plnkz_P6K2nlOEyKLIr7-77" value="投资热点跟踪表" style="ellipse;whiteSpace=wrap;html=1;" vertex="1" parent="1">
          <mxGeometry x="-450" y="497.5" width="240" height="75" as="geometry" />
        </mxCell>
        <mxCell id="plnkz_P6K2nlOEyKLIr7-78" value="投资复盘表" style="ellipse;whiteSpace=wrap;html=1;" vertex="1" parent="1">
          <mxGeometry x="-460" y="600" width="240" height="90" as="geometry" />
        </mxCell>
        <mxCell id="plnkz_P6K2nlOEyKLIr7-80" value="交易认知" style="text;html=1;strokeColor=none;fillColor=none;align=center;verticalAlign=middle;whiteSpace=wrap;rounded=0;" vertex="1" parent="1">
          <mxGeometry x="275" y="-110" width="60" height="30" as="geometry" />
        </mxCell>
        <mxCell id="plnkz_P6K2nlOEyKLIr7-81" value="交易原则" style="text;html=1;strokeColor=none;fillColor=none;align=center;verticalAlign=middle;whiteSpace=wrap;rounded=0;" vertex="1" parent="1">
          <mxGeometry x="255" y="80" width="60" height="30" as="geometry" />
        </mxCell>
        <mxCell id="plnkz_P6K2nlOEyKLIr7-82" value="术" style="text;html=1;strokeColor=none;fillColor=none;align=center;verticalAlign=middle;whiteSpace=wrap;rounded=0;" vertex="1" parent="1">
          <mxGeometry x="335" y="240" width="60" height="30" as="geometry" />
        </mxCell>
        <mxCell id="plnkz_P6K2nlOEyKLIr7-59" value="时间" style="ellipse;whiteSpace=wrap;html=1;" vertex="1" parent="1">
          <mxGeometry x="-30" y="460" width="65" height="55" as="geometry" />
        </mxCell>
        <mxCell id="plnkz_P6K2nlOEyKLIr7-96" style="edgeStyle=orthogonalEdgeStyle;rounded=0;orthogonalLoop=1;jettySize=auto;html=1;exitX=1;exitY=0.5;exitDx=0;exitDy=0;entryX=0;entryY=0.5;entryDx=0;entryDy=0;" edge="1" parent="1" source="plnkz_P6K2nlOEyKLIr7-61" target="plnkz_P6K2nlOEyKLIr7-1">
          <mxGeometry relative="1" as="geometry" />
        </mxCell>
        <mxCell id="plnkz_P6K2nlOEyKLIr7-61" value="正向系统" style="ellipse;whiteSpace=wrap;html=1;" vertex="1" parent="1">
          <mxGeometry x="100" y="-55" width="70" height="30" as="geometry" />
        </mxCell>
        <mxCell id="plnkz_P6K2nlOEyKLIr7-94" value="" style="edgeStyle=orthogonalEdgeStyle;rounded=0;orthogonalLoop=1;jettySize=auto;html=1;exitX=0.5;exitY=0;exitDx=0;exitDy=0;entryX=0;entryY=0.5;entryDx=0;entryDy=0;startArrow=none;endArrow=none;" edge="1" parent="1" source="plnkz_P6K2nlOEyKLIr7-59" target="plnkz_P6K2nlOEyKLIr7-61">
          <mxGeometry relative="1" as="geometry">
            <mxPoint x="2.5" y="460" as="sourcePoint" />
            <mxPoint x="245" y="-40" as="targetPoint" />
            <Array as="points">
              <mxPoint y="120" />
            </Array>
          </mxGeometry>
        </mxCell>
        <mxCell id="plnkz_P6K2nlOEyKLIr7-95" value="正向系统" style="ellipse;whiteSpace=wrap;html=1;" vertex="1" parent="1">
          <mxGeometry x="100" y="480" width="70" height="30" as="geometry" />
        </mxCell>
      </root>
    </mxGraphModel>
  </diagram>
</mxfile>
